# xmcd
#
# Track frame offsets: 
#        182
#        19902
#        40085
#        58237
#        78932
#        97105
#        121277
#        145877
#        162462
#        184292
#        205510
#        229635
#
# Disc length: 3304 seconds
#
# Revision: 2
# Processed by: cddbd v1.5.2PL0 Copyright (c) Steve Scherf et al.
# Submitted via: ExactAudioCopy v0.95b3
#
DISCID=a10ce60c
DTITLE=Various Artist - Soul Classics-Quiet Storm
DYEAR=1996
DGENRE=
TTITLE0=1. You Are My Lady - Freddie Jackson
TTITLE1=2. Endless Love - Diana Ross and Lionel Richie 
TTITLE2=3. Ebony Eyes - Rick James (feat) Smokey Robinson
TTITLE3=4. When Love Calls - Atlantic Starr
TTITLE4=5. Sail On - The Commodores
TTITLE5=6. Piano In The Dark - Brenda Russell
TTITLE6=7. Dreamin' - Vanessa Williams
TTITLE7=8. Special Lady - Ray, Goodman and Brown
TTITLE8=9. Just The Way You Are - Barry White
TTITLE9=10. Two Hearts - Stephanie Mills (feat.) Teddy Pendergrass
TTITLE10=11. Angel - Angela Winbush
TTITLE11=12. Yearning For Your Love - The Gap Band
EXTD=
EXTT0=Freddie Jackson\n
EXTT1=Lionel Richie and Diana Ross\n
EXTT2=Smokey Robinson and Rick James\n
EXTT3=Atlantic Starr\n
EXTT4=The Commodores\n
EXTT5=Brenda Russell\n
EXTT6=Vanessa Williams\n
EXTT7=Ray, Goodman and Brown\n
EXTT8=Barry White\n
EXTT9=Stephanie Mills and Teddy Pendergrass\n
EXTT10=Angela Winbush\n
EXTT11=The Gap Band\n
PLAYORDER=
